#!OML:ASF X:\für Bonn\!DataBase\2005_08_12_Daniel\c3d\Daniel.ASF
:FULLY-SPECIFIED
:DEGREES
121
root 1.07083 17.6369 -16.6066 362.287 11.7841 0.70924
lowerback 55.4639 -3.17361 10.0622
upperback 13.967 1.91562 -1.25194
thorax -4.95559 1.51446 -6.63615
lowerneck 7.5911 -7.3252 1.46956
upperneck 7.67772 -9.59623 4.78168
head 1.32456 -4.61617 1.34146
rclavicle -3.65764e-014 4.92986e-014
rhumerus 210.763 -158.424 -272.787
rradius 7.38919
rwrist 34.3001
rhand -22.9559 13.8434
rfingers 7.12502
rthumb 3.48564 -16.1078
lclavicle -3.65764e-014 4.92986e-014
lhumerus -25.3111 -8.62324 88.043
lradius 54.4905
lwrist -1.1206
lhand -11.1497 -7.81197
lfingers 7.12502
lthumb 14.8762 21.6339
rfemur -20.3059 1.80308 12.6617
rtibia 28.9964
rfoot -13.3677 -9.40032
rtoes -11.6286
lfemur -27.6253 -15.701 -17.3141
ltibia 34.752
lfoot -9.53451 -2.16231
ltoes -11.9536
122
root 1.05394 17.6264 -16.6365 362.699 11.7606 0.807327
lowerback 56.4839 -3.25319 10.2029
upperback 13.8061 2.0246 -1.27592
thorax -5.17404 1.56016 -6.7503
lowerneck 7.34295 -7.44451 1.54323
upperneck 7.48613 -9.7481 4.71893
head 1.30004 -4.69174 1.30471
rclavicle 3.02153e-014 7.95139e-016
rhumerus 211.978 -158.388 -272.745
rradius 6.87866
rwrist 34.4475
rhand -23.0783 13.5105
rfingers 7.12502
rthumb 3.36746 -16.4426
lclavicle 3.02153e-014 7.95139e-016
lhumerus -25.557 -9.30612 88.0248
lradius 54.1475
lwrist -1.00381
lhand -11.1378 -7.70114
lfingers 7.12502
lthumb 14.8877 21.7439
rfemur -21.2005 1.41997 12.5936
rtibia 29.5253
rfoot -13.2615 -9.06945
rtoes -11.6123
lfemur -28.325 -15.5706 -17.2297
ltibia 34.9334
lfoot -9.43523 -2.27529
ltoes -11.9339
123
root 1.03587 17.6154 -16.6647 363.105 11.7374 0.92415
lowerback 57.5224 -3.34105 10.3427
upperback 13.6417 2.12605 -1.33249
thorax -5.38761 1.60501 -6.89659
lowerneck 7.03474 -7.56223 1.57882
upperneck 7.33875 -9.90768 4.7089
head 1.30448 -4.77 1.28726
rclavicle -2.38542e-014 1.74931e-014
rhumerus 213.177 -158.313 -272.73
rradius 6.42452
rwrist 34.5993
rhand -23.2311 13.1417
rfingers 7.12502
rthumb 3.21996 -16.8138
lclavicle -2.38542e-014 1.74931e-014
lhumerus -25.7859 -10.0672 87.98
lradius 53.8009
lwrist -0.787871
lhand -11.1826 -7.52986
lfingers 7.12502
lthumb 14.8446 21.9184
rfemur -22.0799 1.1086 12.5047
rtibia 30.0685
rfoot -13.2082 -8.78261
rtoes -11.4228
lfemur -29.0073 -15.4334 -17.1694
ltibia 35.1191
lfoot -9.34339 -2.3723
ltoes -11.8637
124
root 1.01768 17.6039 -16.6897 363.528 11.7668 1.02172
lowerback 58.4942 -3.4395 10.4627
upperback 13.4786 2.20694 -1.34312
thorax -5.5915 1.6356 -6.97552
lowerneck 6.73983 -7.63721 1.44122
upperneck 7.23173 -10.0263 4.7839
head 1.33276 -4.83078 1.32333
rclavicle 1.59028e-015 5.56597e-015
rhumerus 214.311 -158.3 -272.646
rradius 6.0364
rwrist 34.7542
rhand -23.3383 12.7122
rfingers 7.12502
rthumb 3.1164 -17.2448
lclavicle 1.59028e-015 5.56597e-015
lhumerus -26.0241 -10.7006 87.9799
lradius 53.44
lwrist -0.587301
lhand -11.2067 -7.41392
lfingers 7.12502
lthumb 14.8214 22.036
rfemur -22.9707 0.744753 12.4509
rtibia 30.6205
rfoot -13.1739 -8.50753
rtoes -11.4001
lfemur -29.7149 -15.3152 -17.0863
ltibia 35.3182
lfoot -9.26388 -2.50586
ltoes -11.8646
125
root 0.998735 17.5926 -16.7125 363.935 11.8376 1.13867
lowerback 59.4268 -3.54946 10.5764
upperback 13.3365 2.27097 -1.35498
thorax -5.76406 1.66127 -7.04571
lowerneck 6.56393 -7.71791 1.34636
upperneck 7.05051 -10.1403 4.84732
head 1.31524 -4.89168 1.35503
rclavicle -3.81667e-014 6.36111e-015
rhumerus 215.448 -158.267 -272.562
rradius 5.65957
rwrist 34.8877
rhand -23.3754 12.2859
rfingers 7.12502
rthumb 3.08053 -17.6716
lclavicle -3.81667e-014 6.36111e-015
lhumerus -26.2693 -11.3489 87.9762
lradius 53.1331
lwrist -0.295174
lhand -11.1646 -7.17887
lfingers 7.12502
lthumb 14.8619 22.2681
rfemur -23.8201 0.403758 12.3811
rtibia 31.1856
rfoot -13.156 -8.28717
rtoes -11.2122
lfemur -30.405 -15.1956 -17.0368
ltibia 35.5234
lfoot -9.18178 -2.68503
ltoes -11.862
126
root 0.980749 17.5802 -16.7346 364.332 11.9168 1.25622
lowerback 60.3165 -3.66872 10.6959
upperback 13.2155 2.32562 -1.36741
thorax -5.90417 1.68536 -7.11463
lowerneck 6.44417 -7.78027 1.23649
upperneck 6.82274 -10.2281 4.9446
head 1.27614 -4.94183 1.4028
rclavicle -3.33958e-014 4.77083e-015
rhumerus 216.552 -158.238 -272.478
rradius 5.32746
rwrist 35.082
rhand -23.5106 11.8542
rfingers 7.12502
rthumb 2.94997 -18.1051
lclavicle -3.33958e-014 4.77083e-015
lhumerus -26.5108 -11.8791 87.9882
lradius 52.8409
lwrist -0.0913808
lhand -11.0934 -6.96847
lfingers 7.12502
lthumb 14.9305 22.4734
rfemur -24.6625 0.0468998 12.3141
rtibia 31.7624
rfoot -13.1611 -8.05021
rtoes -11.1706
lfemur -31.0921 -15.0538 -17.0025
ltibia 35.7444
lfoot -9.10302 -2.89545
ltoes -11.7728
127
root 0.963459 17.5665 -16.7553 364.763 11.9938 1.37415
lowerback 61.119 -3.77137 10.7921
upperback 13.1144 2.37754 -1.36748
thorax -6.01586 1.70793 -7.15951
lowerneck 6.36736 -7.84493 1.15925
upperneck 6.58426 -10.313 5.00701
head 1.22291 -4.99079 1.43649
rclavicle -4.6118e-014 -5.56597e-015
rhumerus 217.718 -158.252 -272.408
rradius 4.92342
rwrist 35.2805
rhand -23.6399 11.3908
rfingers 7.12502
rthumb 2.82513 -18.5703
lclavicle -4.6118e-014 -5.56597e-015
lhumerus -26.7568 -12.3788 88.0046
lradius 52.5793
lwrist 0.111364
lhand -11.0201 -6.77135
lfingers 7.12502
lthumb 15.0012 22.6653
rfemur -25.5478 -0.3056 12.2548
rtibia 32.3549
rfoot -13.1668 -7.83222
rtoes -11.1198
lfemur -31.8124 -14.917 -16.9633
ltibia 35.9797
lfoot -9.03943 -3.09553
ltoes -11.7713
128
root 0.947594 17.5526 -16.775 365.187 12.0606 1.50887
lowerback 61.9441 -3.86965 10.8899
upperback 12.9737 2.44019 -1.37804
thorax -6.16541 1.73209 -7.22151
lowerneck 6.4405 -7.90874 1.05896
upperneck 6.26579 -10.39 5.12172
head 1.1242 -5.03996 1.49846
rclavicle -1.27222e-013 1.51076e-014
rhumerus 218.785 -158.228 -272.313
rradius 4.54683
rwrist 35.5091
rhand -23.8075 10.9406
rfingers 7.12502
rthumb 2.6633 -19.0226
lclavicle -1.27222e-013 1.51076e-014
lhumerus -27.0819 -12.8347 88.0667
lradius 52.3313
lwrist 0.241688
lhand -10.9037 -6.5689
lfingers 7.12502
lthumb 15.1133 22.8593
rfemur -26.4281 -0.636197 12.1668
rtibia 32.9686
rfoot -13.1833 -7.61066
rtoes -11.0247
lfemur -32.5299 -14.8189 -16.9407
ltibia 36.2386
lfoot -9.00754 -3.26116
ltoes -11.7602
129
root 0.933754 17.5377 -16.7937 365.611 12.1479 1.64264
lowerback 62.7244 -4.00677 11.012
upperback 12.8559 2.46875 -1.40908
thorax -6.28399 1.74613 -7.302
lowerneck 6.56787 -7.96395 1.01848
upperneck 5.8779 -10.4468 5.2122
head 0.989754 -5.08095 1.54741
rclavicle 3.97569e-014 2.78299e-014
rhumerus 219.72 -158.202 -272.219
rradius 4.42793
rwrist 35.6852
rhand -23.8899 10.4798
rfingers 7.12502
rthumb 2.58365 -19.4843
lclavicle 3.97569e-014 2.78299e-014
lhumerus -27.3621 -13.1726 88.0878
lradius 52.0461
lwrist 0.326678
lhand -10.7387 -6.42964
lfingers 7.12502
lthumb 15.2722 22.9865
rfemur -27.3189 -1.01969 12.0825
rtibia 33.6071
rfoot -13.2154 -7.35268
rtoes -10.9941
lfemur -33.2606 -14.7105 -16.9386
ltibia 36.5192
lfoot -8.96024 -3.43822
ltoes -11.6881
130
root 0.920346 17.5203 -16.8112 366.027 12.2255 1.77766
lowerback 63.5028 -4.12902 11.1156
upperback 12.7236 2.50758 -1.42362
thorax -6.41452 1.76097 -7.36039
lowerneck 6.70723 -8.01691 0.92585
upperneck 5.53198 -10.5051 5.32729
head 0.871268 -5.12248 1.61271
rclavicle -1.59028e-015 -5.725e-014
rhumerus 220.603 -158.17 -272.069
rradius 4.32779
rwrist 35.795
rhand -24.0112 10.0541
rfingers 7.12502
rthumb 2.46656 -19.9114
lclavicle -1.59028e-015 -5.725e-014
lhumerus -27.7015 -13.4291 88.1636
lradius 51.7832
lwrist 0.302877
lhand -10.5752 -6.32915
lfingers 7.12502
lthumb 15.4297 23.075
rfemur -28.2088 -1.40596 12.0096
rtibia 34.2665
rfoot -13.2349 -7.09707
rtoes -10.8802
lfemur -33.9873 -14.5694 -16.9515
ltibia 36.8228
lfoot -8.92904 -3.65068
ltoes -11.675
131
root 0.908609 17.5017 -16.8288 366.447 12.3195 1.93196
lowerback 64.2632 -4.28073 11.2279
upperback 12.5942 2.51779 -1.45908
thorax -6.53884 1.76585 -7.43373
lowerneck 6.81788 -8.06187 0.865105
upperneck 5.19546 -10.5521 5.4145
head 0.756925 -5.15746 1.6631
rclavicle -6.99722e-014 -6.2816e-014
rhumerus 221.485 -158.156 -271.955
rradius 4.25673
rwrist 35.8591
rhand -24.079 9.66301
rfingers 7.12502
rthumb 2.40109 -20.3032
lclavicle -6.99722e-014 -6.2816e-014
lhumerus -28.0821 -13.662 88.2205
lradius 51.5839
lwrist 0.318086
lhand -10.4106 -6.22753
lfingers 7.12502
lthumb 15.5882 23.1643
rfemur -29.1049 -1.77795 11.903
rtibia 34.9444
rfoot -13.298 -6.8491
rtoes -10.8427
lfemur -34.7265 -14.4447 -16.9873
ltibia 37.1462
lfoot -8.90012 -3.8741
ltoes -11.5861
132
root 0.898059 17.4833 -16.8444 366.866 12.405 2.08615
lowerback 65.0331 -4.42371 11.3225
upperback 12.4458 2.5336 -1.4768
thorax -6.68126 1.76873 -7.48173
lowerneck 6.88649 -8.10768 0.753101
upperneck 4.90958 -10.6071 5.49372
head 0.668003 -5.19534 1.71663
rclavicle 1.90833e-014 -1.74931e-014
rhumerus 222.309 -158.15 -271.784
rradius 4.18868
rwrist 35.9666
rhand -24.2331 9.22275
rfingers 7.12502
rthumb 2.25227 -20.7451
lclavicle 1.90833e-014 -1.74931e-014
lhumerus -28.4664 -13.8323 88.32
lradius 51.3729
lwrist 0.276256
lhand -10.2664 -6.23999
lfingers 7.12502
lthumb 15.7271 23.141
rfemur -29.9994 -2.1325 11.8012
rtibia 35.6327
rfoot -13.3841 -6.61951
rtoes -10.8023
lfemur -35.4646 -14.3036 -17.0355
ltibia 37.4852
lfoot -8.88206 -4.10695
ltoes -11.4977
133
root 0.886823 17.4631 -16.8598 367.285 12.4952 2.27366
lowerback 65.813 -4.5818 11.4182
upperback 12.2984 2.53312 -1.53162
thorax -6.8184 1.76901 -7.56514
lowerneck 6.80915 -8.15215 0.719966
upperneck 4.70133 -10.6638 5.54257
head 0.621488 -5.229 1.73932
rclavicle 2.8625e-014 6.40087e-014
rhumerus 223.157 -158.105 -271.664
rradius 4.11165
rwrist 35.9665
rhand -24.4479 8.91109
rfingers 7.12502
rthumb 2.04483 -21.0589
lclavicle 2.8625e-014 6.40087e-014
lhumerus -28.8282 -14.0206 88.3908
lradius 51.1973
lwrist 0.275028
lhand -10.096 -6.17623
lfingers 7.12502
lthumb 15.8912 23.1917
rfemur -30.8954 -2.46395 11.662
rtibia 36.3334
rfoot -13.4516 -6.42225
rtoes -10.7524
lfemur -36.1866 -14.1534 -17.1344
ltibia 37.828
lfoot -8.8745 -4.35155
ltoes -11.489
134
root 0.876561 17.4433 -16.8738 367.693 12.5848 2.46181
lowerback 66.5836 -4.72784 11.4888
upperback 12.1664 2.53612 -1.55285
thorax -6.93569 1.76903 -7.6006
lowerneck 6.62572 -8.19214 0.585394
upperneck 4.55617 -10.7289 5.61737
head 0.619524 -5.26557 1.78004
rclavicle -3.18055e-014 -1.43125e-014
rhumerus 224.059 -158.093 -271.501
rradius 3.99236
rwrist 35.9123
rhand -24.668 8.57205
rfingers 7.12502
rthumb 1.83218 -21.3998
lclavicle -3.18055e-014 -1.43125e-014
lhumerus -29.1354 -14.1261 88.5134
lradius 51.0189
lwrist 0.271039
lhand -9.99773 -6.19356
lfingers 7.12502
lthumb 15.9858 23.1668
rfemur -31.7691 -2.76444 11.5177
rtibia 37.0454
rfoot -13.5668 -6.24173
rtoes -10.6906
lfemur -36.9017 -13.9754 -17.2475
ltibia 38.1802
lfoot -8.87902 -4.63574
ltoes -11.4787
135
root 0.866503 17.4217 -16.8876 368.114 12.6835 2.66847
lowerback 67.3396 -4.88603 11.5633
upperback 12.0154 2.526 -1.59882
thorax -7.07158 1.76374 -7.66125
lowerneck 6.45492 -8.23739 0.519585
upperneck 4.41542 -10.7952 5.6669
head 0.611871 -5.30155 1.8021
rclavicle -4.77083e-014 -1.11319e-014
rhumerus 224.894 -158.059 -271.362
rradius 3.88883
rwrist 35.8746
rhand -24.9637 8.24182
rfingers 7.12502
rthumb 1.54662 -21.7323
lclavicle -4.77083e-014 -1.11319e-014
lhumerus -29.4156 -14.231 88.6169
lradius 50.8013
lwrist 0.259033
lhand -9.9098 -6.29473
lfingers 7.12502
lthumb 16.0705 23.0589
rfemur -32.6651 -3.04571 11.3496
rtibia 37.7787
rfoot -13.6984 -6.0894
rtoes -10.7229
lfemur -37.6303 -13.7611 -17.4017
ltibia 38.5451
lfoot -8.86703 -4.9325
ltoes -11.4116
